<?xml version="1.0"?>
<!DOCTYPE svg PUBLIC "-//W3C//DTD SVG 1.1//EN"
  "http://www.w3.org/Graphics/SVG/1.1/DTD/svg11.dtd">

<svg version="1.1"
     xmlns="http://www.w3.org/2000/svg"
     xmlns:xlink="http://www.w3.org/1999/xlink"
     viewBox="30 0 598 93"
     width="598" height="93">
<g transform="translate(0,437) scale(1,-1) scale(.01800) translate(2100,44250)" stroke-linejoin="round" color="black" stroke="currentColor" fill="none" stroke-width="26.7067"  fill-rule="evenodd">
<defs>
<g id="P00">
<path  d="
M118 -168
L162 -168
L200 -162
L256 -143
L306 -118
L350 -87
L368 -68
L400 -31
L418 6
L425 43
L425 68
L418 93
L412 106
L393 131
L368 150
L356 156
L337 162
L306 168
L262 168
L225 162
L187 150
L168 143
L118 118
L75 87
L56 68
L25 31
L6 -6
L0 -43
L0 -68
L6 -93
L12 -106
L31 -131
L56 -150
L68 -156
L87 -162
L118 -168
Z" fill="currentColor"/>
</g>
</defs>
<defs>
<g id="P01">
<path  d="
M31 -131
L56 -150
L68 -156
L87 -162
L125 -168
L162 -168
L200 -162
L237 -150
L256 -143
L306 -118
L350 -87
L368 -68
L375 -62
L400 -31
L418 6
L425 43
L425 68
L418 93
L412 106
L393 131
L368 150
L356 156
L337 162
L300 168
L262 168
L225 162
L187 150
L168 143
L118 118
L75 87
L50 62
L25 31
L6 -6
L0 -43
L0 -68
L6 -93
L12 -106
L31 -131
M43 -131
L62 -143
L87 -150
L100 -150
L131 -137
L368 6
L393 25
L406 37
L412 56
L412 75
L406 93
L400 106
L381 131
L362 143
L337 150
L325 150
L293 137
L56 -6
L31 -25
L18 -37
L12 -56
L12 -75
L18 -93
L25 -106
L43 -131
Z" fill="currentColor"/>
</g>
</defs>
 <style type="text/css">.bar:hover &#123;color:red;stroke:red&#125;</style>
<path  d="
M0 -24000
L30000 -24000
M0 -23650
L30000 -23650
M0 -23300
L30000 -23300
M0 -22950
L30000 -22950
M0 -22600
L30000 -22600
"/>
<path  d="
M0 -21900
L30000 -21900
M0 -21550
L30000 -21550
M0 -21200
L30000 -21200
M0 -20850
L30000 -20850
M0 -20500
L30000 -20500
"/>
<path  d="
M0 -24000
L0 -20500
M6 -24000
L6 -20500
"/>
<path  d="
M30000 -24000
L30000 -20500
M30006 -24000
L30006 -20500
"/>
<path  d="
M-154 -24000
L-226 -23918
L-248 -23889
L-287 -23831
L-320 -23764
L-342 -23706
L-359 -23639
L-370 -23572
L-375 -23485
L-375 -23437
L-364 -23341
L-348 -23254
L-265 -22913
L-243 -22793
L-226 -22668
L-226 -22605
L-237 -22500
L-254 -22432
L-265 -22403
L-293 -22355
L-375 -22250
L-293 -22144
L-265 -22096
L-254 -22067
L-237 -22000
L-226 -21894
L-226 -21831
L-243 -21706
L-265 -21586
L-348 -21245
L-364 -21158
L-375 -21062
L-375 -21014
L-370 -20927
L-359 -20860
L-342 -20793
L-320 -20735
L-287 -20668
L-248 -20610
L-226 -20581
L-154 -20500
L-221 -20605
L-259 -20677
L-287 -20750
L-309 -20846
L-315 -20927
L-315 -20961
L-304 -21048
L-281 -21149
L-254 -21240
L-226 -21336
L-182 -21509
L-171 -21576
L-160 -21673
L-154 -21740
L-154 -21817
L-171 -21947
L-193 -22009
L-226 -22076
L-265 -22129
L-370 -22250
L-265 -22370
L-226 -22423
L-193 -22490
L-171 -22552
L-154 -22682
L-154 -22759
L-160 -22826
L-171 -22923
L-182 -22990
L-226 -23163
L-254 -23259
L-281 -23350
L-304 -23451
L-315 -23538
L-315 -23572
L-309 -23653
L-287 -23750
L-259 -23822
L-221 -23894
L-154 -24000
Z" fill="currentColor"/>
<path  d="
M706 -20825
L925 -22075
L937 -22193
L931 -22256
L918 -22293
L906 -22318
L881 -22356
L843 -22393
L812 -22412
L768 -22425
L731 -22431
L700 -22431
L637 -22425
L606 -22418
L581 -22406
L587 -22368
L612 -22375
L625 -22375
L650 -22368
L675 -22356
L693 -22343
L712 -22325
L731 -22293
L737 -22275
L743 -22243
L743 -22231
L737 -22200
L718 -22162
L706 -22150
L681 -22131
L668 -22125
L631 -22112
L600 -22112
L568 -22118
L537 -22131
L518 -22143
L500 -22162
L481 -22193
L475 -22212
L468 -22243
L468 -22268
L475 -22306
L487 -22337
L506 -22368
L537 -22400
L562 -22418
L606 -22437
L637 -22443
L700 -22450
L718 -22450
L768 -22443
L800 -22437
L831 -22425
L862 -22406
L906 -22362
L931 -22325
L950 -22268
L956 -22243
L962 -22187
L950 -22075
L731 -20825
L706 -20825
Z" fill="currentColor"/>
<path  d="
M662 -21875
L743 -21881
L793 -21881
L862 -21875
L900 -21868
L937 -21856
L987 -21831
"/>
<path  d="
M987 -21831
L1031 -21787
L1043 -21768
L1062 -21737
L1075 -21706
L1081 -21687
L1087 -21662
L1093 -21618
L1093 -21587
L1087 -21550
L1081 -21525
L1068 -21493
L1043 -21456
L1025 -21437
L1000 -21418
L968 -21400
L937 -21387
L912 -21381
L856 -21375
L850 -21375
L793 -21381
L743 -21393
L718 -21406
L681 -21431
L656 -21462
L643 -21487
L631 -21518
L625 -21568
L631 -21612
L643 -21643
L662 -21675
L687 -21700
L743 -21737
L737 -21743
L675 -21712
L650 -21693
L618 -21662
L587 -21618
L568 -21568
L562 -21525
L562 -21493
L568 -21456
L575 -21431
L593 -21387
L612 -21356
L631 -21331
L662 -21300
L700 -21268
L731 -21250
L756 -21237
L812 -21225
L837 -21225
L900 -21231
L943 -21243
L987 -21262
L1031 -21287
L1075 -21331
L1106 -21375
L1131 -21425
L1143 -21468
L1150 -21506
L1150 -21543
L1143 -21593
L1137 -21625
L1125 -21668
L1106 -21706
L1087 -21737
L1062 -21768
L1031 -21800
L987 -21831
Z" fill="currentColor"/>
<path  d="
M662 -21875
L625 -21868
L575 -21856
L537 -21843
L487 -21818
L462 -21800
L425 -21768
L393 -21737
L362 -21693
L337 -21643
L318 -21593
L306 -21537
L300 -21481
L300 -21418
L312 -21325
L331 -21250
L356 -21187
L387 -21125
L431 -21068
L487 -21006
L593 -20906
L662 -20843
L818 -20693
L887 -20612
L925 -20550
L950 -20493
L962 -20456
L975 -20406
L981 -20350
L981 -20312
L975 -20268
L968 -20250
L1006 -20225
L1018 -20275
L1025 -20312
L1031 -20368
L1031 -20381
L1025 -20468
L1018 -20506
L1006 -20562
L987 -20631
L962 -20693
L931 -20756
L887 -20831
L818 -20912
L587 -21131
L518 -21206
L481 -21256
L443 -21318
L431 -21343
L412 -21387
L400 -21431
L393 -21487
L393 -21531
L400 -21587
L412 -21637
L431 -21687
L462 -21743
L487 -21775
L518 -21806
L550 -21831
L587 -21850
L618 -21862
L662 -21875
Z" fill="currentColor"/>
<path  d="
M706 -20825
L681 -20650
L675 -20531
L675 -20437
L687 -20318
L700 -20262
L718 -20212
L743 -20168
L775 -20125
L806 -20087
L856 -20037
L881 -20025
L887 -20025
L900 -20031
L931 -20068
L968 -20137
L1006 -20225
L968 -20250
L956 -20218
L937 -20193
L918 -20187
L912 -20187
L887 -20193
L881 -20200
L862 -20212
L837 -20237
L793 -20300
L756 -20375
L737 -20425
L718 -20512
L712 -20581
L712 -20625
L718 -20718
L731 -20825
L706 -20825
Z" fill="currentColor"/>
<path  d="
M300 -22968
L312 -23000
L331 -23025
L356 -23050
L387 -23062
L425 -23068
L437 -23068
L481 -23062
L512 -23050
L537 -23031
L556 -23006
L568 -22981
L575 -22943
L575 -22925
L568 -22893
L556 -22868
L531 -22843
L512 -22831
L487 -22818
L456 -22812
L425 -22812
L387 -22825
L368 -22837
L350 -22868
L331 -22850
L337 -22806
L350 -22768
L362 -22743
L393 -22693
L356 -22731
L337 -22756
L325 -22781
L306 -22831
L293 -22881
L293 -22918
L300 -22968
Z" fill="currentColor"/>
<path  d="
M393 -22693
L437 -22662
L475 -22643
L512 -22631
L550 -22625
"/>
<path  d="
M462 -23637
L537 -23593
L625 -23537
L718 -23462
L800 -23381
L837 -23331
L881 -23268
L906 -23218
L931 -23162
L943 -23118
L950 -23075
L956 -23018
L956 -22975
L950 -22912
L937 -22868
L918 -22818
L900 -22781
L868 -22737
L837 -22706
L800 -22681
L775 -22662
L731 -22643
L687 -22631
L631 -22625
L550 -22625
L625 -22637
L656 -22650
L693 -22675
L731 -22718
L750 -22750
L768 -22800
L781 -22862
L787 -22937
L787 -23006
L781 -23106
L768 -23175
L756 -23231
L737 -23293
L706 -23362
L681 -23406
L643 -23456
L600 -23506
L575 -23531
L531 -23568
L481 -23606
L443 -23631
L368 -23675
L250 -23737
L250 -23743
L331 -23706
L462 -23637
Z" fill="currentColor"/>
<path  d="
M1056 -22787
L1062 -22800
L1075 -22818
L1093 -22825
L1112 -22825
L1131 -22818
L1143 -22800
L1150 -22787
L1150 -22762
L1143 -22750
L1131 -22731
L1112 -22725
L1093 -22725
L1075 -22731
L1062 -22750
L1056 -22762
L1056 -22787
Z" fill="currentColor"/>
<path  d="
M1056 -23131
L1062 -23143
L1075 -23162
L1093 -23168
L1112 -23168
L1131 -23162
L1143 -23143
L1150 -23131
L1150 -23106
L1143 -23093
L1131 -23075
L1112 -23068
L1093 -23068
L1075 -23075
L1062 -23093
L1056 -23106
L1056 -23131
Z" fill="currentColor"/>
 <g class="bar"><title>4 C4s</title>
<path stroke-width="40.0600" d="
M3625 -22250
L4300 -22250
"/>
<path  d="
M4095 -22320
L4491 -22320
L4491 -22180
L4095 -22180
L4095 -22320
L4491 -22320
Z" fill="currentColor"/>
 </g>
 <g class="bar"><title>3 C4s</title>
<path stroke-width="40.0600" d="
M3625 -22250
L4300 -22250
"/>
<path  d="
M4095 -22320
L4393 -22320
L4393 -22180
L4095 -22180
L4095 -22320
L4393 -22320
Z" fill="currentColor"/>
 </g>
 <g class="bar"><title>15 D4s</title>
<path  d="
M4095 -22145
L5566 -22145
L5566 -22005
L4095 -22005
L4095 -22145
L5566 -22145
Z" fill="currentColor"/>
 </g>
 <g class="bar"><title>12 E4s</title>
<path  d="
M4095 -21970
L5273 -21970
L5273 -21830
L4095 -21830
L4095 -21970
L5273 -21970
Z" fill="currentColor"/>
 </g>
 <g class="bar"><title>15 F4s</title>
<path  d="
M4095 -21795
L5566 -21795
L5566 -21655
L4095 -21655
L4095 -21795
L5566 -21795
Z" fill="currentColor"/>
 </g>
 <g class="bar"><title>2 F4s</title>
<path  d="
M4095 -21795
L4295 -21795
L4295 -21655
L4095 -21655
L4095 -21795
L4295 -21795
Z" fill="currentColor"/>
 </g>
 <g class="bar"><title>21 G4s</title>
<path  d="
M4095 -21620
L6153 -21620
L6153 -21480
L4095 -21480
L4095 -21620
L6153 -21620
Z" fill="currentColor"/>
 </g>
 <g class="bar"><title>9 G4s</title>
<path  d="
M4095 -21445
L4979 -21445
L4979 -21305
L4095 -21305
L4095 -21445
L4979 -21445
Z" fill="currentColor"/>
 </g>
 <g class="bar"><title>26 A4s</title>
<path  d="
M4095 -21445
L6642 -21445
L6642 -21305
L4095 -21305
L4095 -21445
L6642 -21445
Z" fill="currentColor"/>
 </g>
 <g class="bar"><title>7 B4s</title>
<path  d="
M4095 -21270
L4784 -21270
L4784 -21130
L4095 -21130
L4095 -21270
L4784 -21270
Z" fill="currentColor"/>
 </g>
 <g class="bar"><title>12 B4s</title>
<path  d="
M4095 -21270
L5273 -21270
L5273 -21130
L4095 -21130
L4095 -21270
L5273 -21270
Z" fill="currentColor"/>
 </g>
 <g class="bar"><title>27 C5s</title>
<path  d="
M4095 -21095
L6739 -21095
L6739 -20955
L4095 -20955
L4095 -21095
L6739 -21095
Z" fill="currentColor"/>
 </g>
 <g class="bar"><title>1 C5</title>
<path  d="
M4095 -21095
L4197 -21095
L4197 -20955
L4095 -20955
L4095 -21095
L4197 -21095
Z" fill="currentColor"/>
 </g>
 <g class="bar"><title>8 D5s</title>
<path  d="
M4095 -20920
L4882 -20920
L4882 -20780
L4095 -20780
L4095 -20920
L4882 -20920
Z" fill="currentColor"/>
 </g>
 <g class="bar"><title>9 E5s</title>
<path  d="
M4095 -20745
L4979 -20745
L4979 -20605
L4095 -20605
L4095 -20745
L4979 -20745
Z" fill="currentColor"/>
 </g>
<text transform="translate(3450,-25050) scale(1,-1)" fill="currentColor" stroke="none" font-size="771" style="font-family:Times New Roman">Canto</text>
<use transform="translate(3450,-22250)" xlink:href="#P00"/>
<path stroke-width="40.0600" d="
M3325 -22250
L4000 -22250
"/>
<use transform="translate(3450,-20675)" xlink:href="#P00"/>
<use transform="translate(3501,-21375) scale(.600)" stroke-width="44.511" xlink:href="#P01"/>
 <g class="bar"><title>2 C4s</title>
<path stroke-width="40.0600" d="
M9062 -22250
L9737 -22250
"/>
<path  d="
M9532 -22320
L9672 -22320
L9672 -22180
L9532 -22180
L9532 -22320
L9672 -22320
Z" fill="currentColor"/>
 </g>
 <g class="bar"><title>3 D4s</title>
<path  d="
M9532 -22145
L9740 -22145
L9740 -22005
L9532 -22005
L9532 -22145
L9740 -22145
Z" fill="currentColor"/>
 </g>
 <g class="bar"><title>5 E4s</title>
<path  d="
M9532 -21970
L9875 -21970
L9875 -21830
L9532 -21830
L9532 -21970
L9875 -21970
Z" fill="currentColor"/>
 </g>
 <g class="bar"><title>5 F4s</title>
<path  d="
M9532 -21795
L9875 -21795
L9875 -21655
L9532 -21655
L9532 -21795
L9875 -21795
Z" fill="currentColor"/>
 </g>
 <g class="bar"><title>1 F4</title>
<path  d="
M9532 -21795
L9605 -21795
L9605 -21655
L9532 -21655
L9532 -21795
L9605 -21795
Z" fill="currentColor"/>
 </g>
 <g class="bar"><title>16 G4s</title>
<path  d="
M9532 -21620
L10620 -21620
L10620 -21480
L9532 -21480
L9532 -21620
L10620 -21620
Z" fill="currentColor"/>
 </g>
 <g class="bar"><title>2 G4s</title>
<path  d="
M9532 -21445
L9672 -21445
L9672 -21305
L9532 -21305
L9532 -21445
L9672 -21445
Z" fill="currentColor"/>
 </g>
 <g class="bar"><title>39 A4s</title>
<path  d="
M9532 -21445
L12177 -21445
L12177 -21305
L9532 -21305
L9532 -21445
L12177 -21445
Z" fill="currentColor"/>
 </g>
 <g class="bar"><title>1 B4</title>
<path  d="
M9532 -21270
L9605 -21270
L9605 -21130
L9532 -21130
L9532 -21270
L9605 -21270
Z" fill="currentColor"/>
 </g>
 <g class="bar"><title>28 B4s</title>
<path  d="
M9532 -21270
L11432 -21270
L11432 -21130
L9532 -21130
L9532 -21270
L11432 -21270
Z" fill="currentColor"/>
 </g>
 <g class="bar"><title>33 C5s</title>
<path  d="
M9532 -21095
L11771 -21095
L11771 -20955
L9532 -20955
L9532 -21095
L11771 -21095
Z" fill="currentColor"/>
 </g>
 <g class="bar"><title>2 C5s</title>
<path  d="
M9532 -21095
L9672 -21095
L9672 -20955
L9532 -20955
L9532 -21095
L9672 -21095
Z" fill="currentColor"/>
 </g>
 <g class="bar"><title>25 D5s</title>
<path  d="
M9532 -20920
L11229 -20920
L11229 -20780
L9532 -20780
L9532 -20920
L11229 -20920
Z" fill="currentColor"/>
 </g>
 <g class="bar"><title>15 E5s</title>
<path  d="
M9532 -20745
L10552 -20745
L10552 -20605
L9532 -20605
L9532 -20745
L10552 -20745
Z" fill="currentColor"/>
 </g>
<text transform="translate(8887,-25050) scale(1,-1)" fill="currentColor" stroke="none" font-size="771" style="font-family:Times New Roman">Quinto</text>
<use transform="translate(8887,-22250)" xlink:href="#P00"/>
<path stroke-width="40.0600" d="
M8762 -22250
L9437 -22250
"/>
<use transform="translate(8887,-20675)" xlink:href="#P00"/>
<use transform="translate(8938,-21200) scale(.600)" stroke-width="44.511" xlink:href="#P01"/>
 <g class="bar"><title>1 E3</title>
<path  d="
M14970 -23195
L15060 -23195
L15060 -23055
L14970 -23055
L14970 -23195
L15060 -23195
Z" fill="currentColor"/>
 </g>
 <g class="bar"><title>11 A3s</title>
<path  d="
M14970 -22670
L15911 -22670
L15911 -22530
L14970 -22530
L14970 -22670
L15911 -22670
Z" fill="currentColor"/>
 </g>
 <g class="bar"><title>11 B3s</title>
<path  d="
M14970 -22495
L15911 -22495
L15911 -22355
L14970 -22355
L14970 -22495
L15911 -22495
Z" fill="currentColor"/>
 </g>
 <g class="bar"><title>19 C4s</title>
<path stroke-width="40.0600" d="
M14500 -22250
L15175 -22250
"/>
<path  d="
M14970 -22320
L16593 -22320
L16593 -22180
L14970 -22180
L14970 -22320
L16593 -22320
Z" fill="currentColor"/>
 </g>
 <g class="bar"><title>6 C4s</title>
<path stroke-width="40.0600" d="
M14500 -22250
L15175 -22250
"/>
<path  d="
M14970 -22320
L15485 -22320
L15485 -22180
L14970 -22180
L14970 -22320
L15485 -22320
Z" fill="currentColor"/>
 </g>
 <g class="bar"><title>30 D4s</title>
<path  d="
M14970 -22145
L17529 -22145
L17529 -22005
L14970 -22005
L14970 -22145
L17529 -22145
Z" fill="currentColor"/>
 </g>
 <g class="bar"><title>31 E4s</title>
<path  d="
M14970 -21970
L17614 -21970
L17614 -21830
L14970 -21830
L14970 -21970
L17614 -21970
Z" fill="currentColor"/>
 </g>
 <g class="bar"><title>17 F4s</title>
<path  d="
M14970 -21795
L16422 -21795
L16422 -21655
L14970 -21655
L14970 -21795
L16422 -21795
Z" fill="currentColor"/>
 </g>
 <g class="bar"><title>2 F4s</title>
<path  d="
M14970 -21795
L15145 -21795
L15145 -21655
L14970 -21655
L14970 -21795
L15145 -21795
Z" fill="currentColor"/>
 </g>
 <g class="bar"><title>14 G4s</title>
<path  d="
M14970 -21620
L16167 -21620
L16167 -21480
L14970 -21480
L14970 -21620
L16167 -21620
Z" fill="currentColor"/>
 </g>
 <g class="bar"><title>1 G4</title>
<path  d="
M14970 -21445
L15060 -21445
L15060 -21305
L14970 -21305
L14970 -21445
L15060 -21445
Z" fill="currentColor"/>
 </g>
 <g class="bar"><title>2 A4s</title>
<path  d="
M14970 -21445
L15145 -21445
L15145 -21305
L14970 -21305
L14970 -21445
L15145 -21445
Z" fill="currentColor"/>
 </g>
<text transform="translate(14325,-25050) scale(1,-1)" fill="currentColor" stroke="none" font-size="771" style="font-family:Times New Roman">Alto</text>
<use transform="translate(14325,-23125)" xlink:href="#P00"/>
<use transform="translate(14325,-21375)" xlink:href="#P00"/>
<use transform="translate(14376,-22075) scale(.600)" stroke-width="44.511" xlink:href="#P01"/>
 <g class="bar"><title>1 C3</title>
<path  d="
M20407 -23545
L20500 -23545
L20500 -23405
L20407 -23405
L20407 -23545
L20500 -23545
Z" fill="currentColor"/>
 </g>
 <g class="bar"><title>8 D3s</title>
<path  d="
M20407 -23370
L21116 -23370
L21116 -23230
L20407 -23230
L20407 -23370
L21116 -23370
Z" fill="currentColor"/>
 </g>
 <g class="bar"><title>16 E3s</title>
<path  d="
M20407 -23195
L21820 -23195
L21820 -23055
L20407 -23055
L20407 -23195
L21820 -23195
Z" fill="currentColor"/>
 </g>
 <g class="bar"><title>26 F3s</title>
<path  d="
M20407 -23020
L22700 -23020
L22700 -22880
L20407 -22880
L20407 -23020
L22700 -23020
Z" fill="currentColor"/>
 </g>
 <g class="bar"><title>17 G3s</title>
<path  d="
M20407 -22845
L21908 -22845
L21908 -22705
L20407 -22705
L20407 -22845
L21908 -22845
Z" fill="currentColor"/>
 </g>
 <g class="bar"><title>30 A3s</title>
<path  d="
M20407 -22670
L23052 -22670
L23052 -22530
L20407 -22530
L20407 -22670
L23052 -22670
Z" fill="currentColor"/>
 </g>
 <g class="bar"><title>15 B3s</title>
<path  d="
M20407 -22495
L21732 -22495
L21732 -22355
L20407 -22355
L20407 -22495
L21732 -22495
Z" fill="currentColor"/>
 </g>
 <g class="bar"><title>23 C4s</title>
<path stroke-width="40.0600" d="
M19937 -22250
L20612 -22250
"/>
<path  d="
M20407 -22320
L22436 -22320
L22436 -22180
L20407 -22180
L20407 -22320
L22436 -22320
Z" fill="currentColor"/>
 </g>
 <g class="bar"><title>6 D4s</title>
<path  d="
M20407 -22145
L20940 -22145
L20940 -22005
L20407 -22005
L20407 -22145
L20940 -22145
Z" fill="currentColor"/>
 </g>
 <g class="bar"><title>17 E4s</title>
<path  d="
M20407 -21970
L21908 -21970
L21908 -21830
L20407 -21830
L20407 -21970
L21908 -21970
Z" fill="currentColor"/>
 </g>
<text transform="translate(19762,-25050) scale(1,-1)" fill="currentColor" stroke="none" font-size="771" style="font-family:Times New Roman">Tenore</text>
<use transform="translate(19762,-23475)" xlink:href="#P00"/>
<use transform="translate(19762,-21900)" xlink:href="#P00"/>
<use transform="translate(19813,-22600) scale(.600)" stroke-width="44.511" xlink:href="#P01"/>
 <g class="bar"><title>7 F2s</title>
<path  d="
M25845 -24245
L26822 -24245
L26822 -24105
L25845 -24105
L25845 -24245
L26822 -24245
Z" fill="currentColor"/>
 </g>
 <g class="bar"><title>5 G2s</title>
<path  d="
M25845 -24070
L26544 -24070
L26544 -23930
L25845 -23930
L25845 -24070
L26544 -24070
Z" fill="currentColor"/>
 </g>
 <g class="bar"><title>16 A2s</title>
<path  d="
M25845 -23895
L28073 -23895
L28073 -23755
L25845 -23755
L25845 -23895
L28073 -23895
Z" fill="currentColor"/>
 </g>
 <g class="bar"><title>7 B2s</title>
<path  d="
M25845 -23720
L26822 -23720
L26822 -23580
L25845 -23580
L25845 -23720
L26822 -23720
Z" fill="currentColor"/>
 </g>
 <g class="bar"><title>7 B2s</title>
<path  d="
M25845 -23720
L26822 -23720
L26822 -23580
L25845 -23580
L25845 -23720
L26822 -23720
Z" fill="currentColor"/>
 </g>
 <g class="bar"><title>19 C3s</title>
<path  d="
M25845 -23545
L28489 -23545
L28489 -23405
L25845 -23405
L25845 -23545
L28489 -23545
Z" fill="currentColor"/>
 </g>
 <g class="bar"><title>19 D3s</title>
<path  d="
M25845 -23370
L28489 -23370
L28489 -23230
L25845 -23230
L25845 -23370
L28489 -23370
Z" fill="currentColor"/>
 </g>
 <g class="bar"><title>12 E3s</title>
<path  d="
M25845 -23195
L27517 -23195
L27517 -23055
L25845 -23055
L25845 -23195
L27517 -23195
Z" fill="currentColor"/>
 </g>
 <g class="bar"><title>2 F3s</title>
<path  d="
M25845 -23020
L26127 -23020
L26127 -22880
L25845 -22880
L25845 -23020
L26127 -23020
Z" fill="currentColor"/>
 </g>
 <g class="bar"><title>8 G3s</title>
<path  d="
M25845 -22845
L26961 -22845
L26961 -22705
L25845 -22705
L25845 -22845
L26961 -22845
Z" fill="currentColor"/>
 </g>
 <g class="bar"><title>6 A3s</title>
<path  d="
M25845 -22670
L26683 -22670
L26683 -22530
L25845 -22530
L25845 -22670
L26683 -22670
Z" fill="currentColor"/>
 </g>
<text transform="translate(25200,-25050) scale(1,-1)" fill="currentColor" stroke="none" font-size="771" style="font-family:Times New Roman">Basso</text>
<use transform="translate(25200,-24175)" xlink:href="#P00"/>
<use transform="translate(25200,-22600)" xlink:href="#P00"/>
<use transform="translate(25251,-23475) scale(.600)" stroke-width="44.511" xlink:href="#P01"/>
</g>
</svg>
