<?xml version="1.0"?>
<!DOCTYPE svg PUBLIC "-//W3C//DTD SVG 1.1//EN"
  "http://www.w3.org/Graphics/SVG/1.1/DTD/svg11.dtd">

<svg version="1.1"
     xmlns="http://www.w3.org/2000/svg"
     xmlns:xlink="http://www.w3.org/1999/xlink"
     viewBox="30 0 598 93"
     width="598" height="93">
<g transform="translate(0,437) scale(1,-1) scale(.01800) translate(2100,44250)" stroke-linejoin="round" color="black" stroke="currentColor" fill="none" stroke-width="26.7067"  fill-rule="evenodd">
<defs>
<g id="P00">
<path  d="
M118 -168
L162 -168
L200 -162
L256 -143
L306 -118
L350 -87
L368 -68
L400 -31
L418 6
L425 43
L425 68
L418 93
L412 106
L393 131
L368 150
L356 156
L337 162
L306 168
L262 168
L225 162
L187 150
L168 143
L118 118
L75 87
L56 68
L25 31
L6 -6
L0 -43
L0 -68
L6 -93
L12 -106
L31 -131
L56 -150
L68 -156
L87 -162
L118 -168
Z" fill="currentColor"/>
</g>
</defs>
 <style type="text/css">.bar:hover &#123;color:red;stroke:red&#125;</style>
<path  d="
M0 -24000
L30000 -24000
M0 -23650
L30000 -23650
M0 -23300
L30000 -23300
M0 -22950
L30000 -22950
M0 -22600
L30000 -22600
"/>
<path  d="
M0 -21900
L30000 -21900
M0 -21550
L30000 -21550
M0 -21200
L30000 -21200
M0 -20850
L30000 -20850
M0 -20500
L30000 -20500
"/>
<path  d="
M0 -24000
L0 -20500
M6 -24000
L6 -20500
"/>
<path  d="
M30000 -24000
L30000 -20500
M30006 -24000
L30006 -20500
"/>
<path  d="
M-154 -24000
L-226 -23918
L-248 -23889
L-287 -23831
L-320 -23764
L-342 -23706
L-359 -23639
L-370 -23572
L-375 -23485
L-375 -23437
L-364 -23341
L-348 -23254
L-265 -22913
L-243 -22793
L-226 -22668
L-226 -22605
L-237 -22500
L-254 -22432
L-265 -22403
L-293 -22355
L-375 -22250
L-293 -22144
L-265 -22096
L-254 -22067
L-237 -22000
L-226 -21894
L-226 -21831
L-243 -21706
L-265 -21586
L-348 -21245
L-364 -21158
L-375 -21062
L-375 -21014
L-370 -20927
L-359 -20860
L-342 -20793
L-320 -20735
L-287 -20668
L-248 -20610
L-226 -20581
L-154 -20500
L-221 -20605
L-259 -20677
L-287 -20750
L-309 -20846
L-315 -20927
L-315 -20961
L-304 -21048
L-281 -21149
L-254 -21240
L-226 -21336
L-182 -21509
L-171 -21576
L-160 -21673
L-154 -21740
L-154 -21817
L-171 -21947
L-193 -22009
L-226 -22076
L-265 -22129
L-370 -22250
L-265 -22370
L-226 -22423
L-193 -22490
L-171 -22552
L-154 -22682
L-154 -22759
L-160 -22826
L-171 -22923
L-182 -22990
L-226 -23163
L-254 -23259
L-281 -23350
L-304 -23451
L-315 -23538
L-315 -23572
L-309 -23653
L-287 -23750
L-259 -23822
L-221 -23894
L-154 -24000
Z" fill="currentColor"/>
<path  d="
M706 -20825
L925 -22075
L937 -22193
L931 -22256
L918 -22293
L906 -22318
L881 -22356
L843 -22393
L812 -22412
L768 -22425
L731 -22431
L700 -22431
L637 -22425
L606 -22418
L581 -22406
L587 -22368
L612 -22375
L625 -22375
L650 -22368
L675 -22356
L693 -22343
L712 -22325
L731 -22293
L737 -22275
L743 -22243
L743 -22231
L737 -22200
L718 -22162
L706 -22150
L681 -22131
L668 -22125
L631 -22112
L600 -22112
L568 -22118
L537 -22131
L518 -22143
L500 -22162
L481 -22193
L475 -22212
L468 -22243
L468 -22268
L475 -22306
L487 -22337
L506 -22368
L537 -22400
L562 -22418
L606 -22437
L637 -22443
L700 -22450
L718 -22450
L768 -22443
L800 -22437
L831 -22425
L862 -22406
L906 -22362
L931 -22325
L950 -22268
L956 -22243
L962 -22187
L950 -22075
L731 -20825
L706 -20825
Z" fill="currentColor"/>
<path  d="
M662 -21875
L743 -21881
L793 -21881
L862 -21875
L900 -21868
L937 -21856
L987 -21831
"/>
<path  d="
M987 -21831
L1031 -21787
L1043 -21768
L1062 -21737
L1075 -21706
L1081 -21687
L1087 -21662
L1093 -21618
L1093 -21587
L1087 -21550
L1081 -21525
L1068 -21493
L1043 -21456
L1025 -21437
L1000 -21418
L968 -21400
L937 -21387
L912 -21381
L856 -21375
L850 -21375
L793 -21381
L743 -21393
L718 -21406
L681 -21431
L656 -21462
L643 -21487
L631 -21518
L625 -21568
L631 -21612
L643 -21643
L662 -21675
L687 -21700
L743 -21737
L737 -21743
L675 -21712
L650 -21693
L618 -21662
L587 -21618
L568 -21568
L562 -21525
L562 -21493
L568 -21456
L575 -21431
L593 -21387
L612 -21356
L631 -21331
L662 -21300
L700 -21268
L731 -21250
L756 -21237
L812 -21225
L837 -21225
L900 -21231
L943 -21243
L987 -21262
L1031 -21287
L1075 -21331
L1106 -21375
L1131 -21425
L1143 -21468
L1150 -21506
L1150 -21543
L1143 -21593
L1137 -21625
L1125 -21668
L1106 -21706
L1087 -21737
L1062 -21768
L1031 -21800
L987 -21831
Z" fill="currentColor"/>
<path  d="
M662 -21875
L625 -21868
L575 -21856
L537 -21843
L487 -21818
L462 -21800
L425 -21768
L393 -21737
L362 -21693
L337 -21643
L318 -21593
L306 -21537
L300 -21481
L300 -21418
L312 -21325
L331 -21250
L356 -21187
L387 -21125
L431 -21068
L487 -21006
L593 -20906
L662 -20843
L818 -20693
L887 -20612
L925 -20550
L950 -20493
L962 -20456
L975 -20406
L981 -20350
L981 -20312
L975 -20268
L968 -20250
L1006 -20225
L1018 -20275
L1025 -20312
L1031 -20368
L1031 -20381
L1025 -20468
L1018 -20506
L1006 -20562
L987 -20631
L962 -20693
L931 -20756
L887 -20831
L818 -20912
L587 -21131
L518 -21206
L481 -21256
L443 -21318
L431 -21343
L412 -21387
L400 -21431
L393 -21487
L393 -21531
L400 -21587
L412 -21637
L431 -21687
L462 -21743
L487 -21775
L518 -21806
L550 -21831
L587 -21850
L618 -21862
L662 -21875
Z" fill="currentColor"/>
<path  d="
M706 -20825
L681 -20650
L675 -20531
L675 -20437
L687 -20318
L700 -20262
L718 -20212
L743 -20168
L775 -20125
L806 -20087
L856 -20037
L881 -20025
L887 -20025
L900 -20031
L931 -20068
L968 -20137
L1006 -20225
L968 -20250
L956 -20218
L937 -20193
L918 -20187
L912 -20187
L887 -20193
L881 -20200
L862 -20212
L837 -20237
L793 -20300
L756 -20375
L737 -20425
L718 -20512
L712 -20581
L712 -20625
L718 -20718
L731 -20825
L706 -20825
Z" fill="currentColor"/>
<path  d="
M300 -22968
L312 -23000
L331 -23025
L356 -23050
L387 -23062
L425 -23068
L437 -23068
L481 -23062
L512 -23050
L537 -23031
L556 -23006
L568 -22981
L575 -22943
L575 -22925
L568 -22893
L556 -22868
L531 -22843
L512 -22831
L487 -22818
L456 -22812
L425 -22812
L387 -22825
L368 -22837
L350 -22868
L331 -22850
L337 -22806
L350 -22768
L362 -22743
L393 -22693
L356 -22731
L337 -22756
L325 -22781
L306 -22831
L293 -22881
L293 -22918
L300 -22968
Z" fill="currentColor"/>
<path  d="
M393 -22693
L437 -22662
L475 -22643
L512 -22631
L550 -22625
"/>
<path  d="
M462 -23637
L537 -23593
L625 -23537
L718 -23462
L800 -23381
L837 -23331
L881 -23268
L906 -23218
L931 -23162
L943 -23118
L950 -23075
L956 -23018
L956 -22975
L950 -22912
L937 -22868
L918 -22818
L900 -22781
L868 -22737
L837 -22706
L800 -22681
L775 -22662
L731 -22643
L687 -22631
L631 -22625
L550 -22625
L625 -22637
L656 -22650
L693 -22675
L731 -22718
L750 -22750
L768 -22800
L781 -22862
L787 -22937
L787 -23006
L781 -23106
L768 -23175
L756 -23231
L737 -23293
L706 -23362
L681 -23406
L643 -23456
L600 -23506
L575 -23531
L531 -23568
L481 -23606
L443 -23631
L368 -23675
L250 -23737
L250 -23743
L331 -23706
L462 -23637
Z" fill="currentColor"/>
<path  d="
M1056 -22787
L1062 -22800
L1075 -22818
L1093 -22825
L1112 -22825
L1131 -22818
L1143 -22800
L1150 -22787
L1150 -22762
L1143 -22750
L1131 -22731
L1112 -22725
L1093 -22725
L1075 -22731
L1062 -22750
L1056 -22762
L1056 -22787
Z" fill="currentColor"/>
<path  d="
M1056 -23131
L1062 -23143
L1075 -23162
L1093 -23168
L1112 -23168
L1131 -23162
L1143 -23143
L1150 -23131
L1150 -23106
L1143 -23093
L1131 -23075
L1112 -23068
L1093 -23068
L1075 -23075
L1062 -23093
L1056 -23106
L1056 -23131
Z" fill="currentColor"/>
 <g class="bar"><title>3 F4s</title>
<path  d="
M4095 -21795
L4594 -21795
L4594 -21655
L4095 -21655
L4095 -21795
L4594 -21795
Z" fill="currentColor"/>
 </g>
 <g class="bar"><title>8 G4s</title>
<path  d="
M4095 -21620
L5419 -21620
L5419 -21480
L4095 -21480
L4095 -21620
L5419 -21620
Z" fill="currentColor"/>
 </g>
 <g class="bar"><title>6 A4s</title>
<path  d="
M4095 -21445
L5089 -21445
L5089 -21305
L4095 -21305
L4095 -21445
L5089 -21445
Z" fill="currentColor"/>
 </g>
 <g class="bar"><title>11 B4s</title>
<path  d="
M4095 -21270
L5914 -21270
L5914 -21130
L4095 -21130
L4095 -21270
L5914 -21270
Z" fill="currentColor"/>
 </g>
 <g class="bar"><title>16 C5s</title>
<path  d="
M4095 -21095
L6739 -21095
L6739 -20955
L4095 -20955
L4095 -21095
L6739 -21095
Z" fill="currentColor"/>
 </g>
 <g class="bar"><title>1 C5</title>
<path  d="
M4095 -21095
L4264 -21095
L4264 -20955
L4095 -20955
L4095 -21095
L4264 -21095
Z" fill="currentColor"/>
 </g>
 <g class="bar"><title>11 D5s</title>
<path  d="
M4095 -20920
L5914 -20920
L5914 -20780
L4095 -20780
L4095 -20920
L5914 -20920
Z" fill="currentColor"/>
 </g>
 <g class="bar"><title>4 E5s</title>
<path  d="
M4095 -20745
L4759 -20745
L4759 -20605
L4095 -20605
L4095 -20745
L4759 -20745
Z" fill="currentColor"/>
 </g>
 <g class="bar"><title>1 E5</title>
<path  d="
M4095 -20745
L4264 -20745
L4264 -20605
L4095 -20605
L4095 -20745
L4264 -20745
Z" fill="currentColor"/>
 </g>
 <g class="bar"><title>4 F5s</title>
<path  d="
M4095 -20570
L4759 -20570
L4759 -20430
L4095 -20430
L4095 -20570
L4759 -20570
Z" fill="currentColor"/>
 </g>
<text transform="translate(3450,-25050) scale(1,-1)" fill="currentColor" stroke="none" font-size="771" style="font-family:Times New Roman">../../../../tasso-scores/Trm/kern/Trm0361c-Io</text>
<text transform="translate(24482,-25050) scale(1,-1)" fill="currentColor" stroke="none" font-size="771" >22.krn</text>
<path  d="
M17057 -24735
L17134 -24735
L17134 -25050
L17064 -25050
L17197 -25050
M17330 -25050
L17442 -25050
L17386 -25050
L17386 -24805
L17323 -24742
L17204 -24742
L17134 -24812
M17606 -24581
L17634 -24581
L17634 -24602
L17606 -24602
L17606 -24588
L17627 -24588
L17627 -24595
L17613 -24595
M17550 -24735
L17627 -24735
L17627 -25050
L17550 -25050
L17697 -25050
M17835 -24735
L17891 -24735
L17891 -25050
L17842 -25050
L17933 -25050
M17891 -24791
L17947 -24735
L17996 -24735
L18045 -24791
L18045 -25050
L18003 -25050
L18087 -25050
M18178 -25050
L18248 -25050
L18213 -25050
L18213 -24791
L18157 -24735
L18101 -24735
L18045 -24791
M18414 -24812
L18414 -24777
L18456 -24735
L18631 -24735
L18687 -24791
L18687 -25050
L18736 -25050
L18442 -25050
L18393 -25001
L18393 -24931
L18442 -24882
L18687 -24882
M18852 -24728
L18950 -24728
L18901 -24728
L19034 -25050
L19167 -24728
L19216 -24728
L19118 -24728
M19324 -24889
L19660 -24889
L19653 -24819
L19611 -24763
L19541 -24735
L19443 -24735
L19359 -24784
L19324 -24861
L19324 -24945
L19359 -25001
L19429 -25050
L19569 -25050
L19660 -24987
M19797 -24728
L19881 -24728
L19881 -25050
L19797 -25050
L19972 -25050
M20126 -24791
L20126 -24763
L20091 -24728
L19958 -24728
L19881 -24805
M20305 -24812
L20305 -24777
L20347 -24735
L20522 -24735
L20578 -24791
L20578 -25050
L20627 -25050
L20333 -25050
L20284 -25001
L20284 -24931
L20333 -24882
L20578 -24882
"/>
<path  d="
M20848 -24994
L20834 -25008
L20834 -25029
L20848 -25043
L20869 -25043
L20883 -25029
L20883 -25008
L20869 -24994
L20848 -24994
Z" fill="currentColor"/>
<path  d="
M20750 -24665
L20750 -24644
L20757 -24616
L20771 -24595
L20785 -24581
L20806 -24567
L20834 -24560
L20883 -24560
L20918 -24574
L20946 -24602
L20953 -24616
L20960 -24644
L20960 -24693
L20953 -24721
L20925 -24763
L20855 -24812
L20855 -24917
M21112 -24735
L21189 -24735
L21189 -25050
L21119 -25050
L21252 -25050
M21385 -25050
L21497 -25050
L21441 -25050
L21441 -24805
L21378 -24742
L21259 -24742
L21189 -24812
M21599 -24980
L21669 -25050
L21851 -25050
L21921 -24980
L21921 -24875
L21851 -24805
L21690 -24805
L21620 -24735
L21620 -24616
L21690 -24546
L21851 -24546
L21921 -24616
M22194 -24630
L22194 -25008
L22236 -25050
L22299 -25050
L22341 -25008
L22341 -24980
M22271 -24728
L22117 -24728
M22437 -24889
L22773 -24889
L22766 -24819
L22724 -24763
L22654 -24735
L22556 -24735
L22472 -24784
L22437 -24861
L22437 -24945
L22472 -25001
L22542 -25050
L22682 -25050
L22773 -24987
M23155 -24630
L23155 -24581
L23120 -24546
L23050 -24546
L23008 -24588
L23008 -25050
L22910 -25050
L23092 -25050
M23092 -24777
L22910 -24777
M23265 -24812
L23265 -24777
L23307 -24735
L23482 -24735
L23538 -24791
L23538 -25050
L23587 -25050
L23293 -25050
L23244 -25001
L23244 -24931
L23293 -24882
L23538 -24882
M23703 -24735
L23780 -24735
L23780 -25050
L23710 -25050
L23843 -25050
M23976 -25050
L24088 -25050
L24032 -25050
L24032 -24805
L23969 -24742
L23850 -24742
L23780 -24812
M24253 -24581
L24281 -24581
L24281 -24602
L24253 -24602
L24253 -24588
L24274 -24588
L24274 -24595
L24260 -24595
M24197 -24735
L24274 -24735
L24274 -25050
L24197 -25050
L24344 -25050
"/>
<use transform="translate(3450,-21725)" xlink:href="#P00"/>
<use transform="translate(3450,-20500)" xlink:href="#P00"/>
<path  d="
M3519 -21103
L3534 -21115
L3542 -21118
L3553 -21122
L3576 -21126
L3598 -21126
L3621 -21122
L3643 -21115
L3654 -21111
L3684 -21096
L3711 -21077
L3722 -21066
L3726 -21062
L3741 -21043
L3752 -21021
L3756 -20998
L3756 -20983
L3752 -20968
L3748 -20961
L3737 -20946
L3722 -20935
L3714 -20931
L3703 -20927
L3681 -20923
L3658 -20923
L3636 -20927
L3613 -20935
L3602 -20938
L3572 -20953
L3546 -20972
L3531 -20987
L3516 -21006
L3504 -21028
L3501 -21051
L3501 -21066
L3504 -21081
L3508 -21088
L3519 -21103
M3527 -21103
L3538 -21111
L3553 -21115
L3561 -21115
L3579 -21107
L3722 -21021
L3737 -21010
L3744 -21002
L3748 -20991
L3748 -20980
L3744 -20968
L3741 -20961
L3729 -20946
L3718 -20938
L3703 -20935
L3696 -20935
L3677 -20942
L3534 -21028
L3519 -21040
L3512 -21047
L3508 -21058
L3508 -21070
L3512 -21081
L3516 -21088
L3527 -21103
Z" fill="currentColor"/>
 <g class="bar"><title>2 F2s</title>
<path  d="
M25845 -24245
L26377 -24245
L26377 -24105
L25845 -24105
L25845 -24245
L26377 -24245
Z" fill="currentColor"/>
 </g>
 <g class="bar"><title>2 G2s</title>
<path  d="
M25845 -24070
L26377 -24070
L26377 -23930
L25845 -23930
L25845 -24070
L26377 -24070
Z" fill="currentColor"/>
 </g>
 <g class="bar"><title>1 A2</title>
<path  d="
M25845 -23895
L26113 -23895
L26113 -23755
L25845 -23755
L25845 -23895
L26113 -23895
Z" fill="currentColor"/>
 </g>
 <g class="bar"><title>7 B2s</title>
<path  d="
M25845 -23720
L27697 -23720
L27697 -23580
L25845 -23580
L25845 -23720
L27697 -23720
Z" fill="currentColor"/>
 </g>
 <g class="bar"><title>10 C3s</title>
<path  d="
M25845 -23545
L28489 -23545
L28489 -23405
L25845 -23405
L25845 -23545
L28489 -23545
Z" fill="currentColor"/>
 </g>
 <g class="bar"><title>8 D3s</title>
<path  d="
M25845 -23370
L27961 -23370
L27961 -23230
L25845 -23230
L25845 -23370
L27961 -23370
Z" fill="currentColor"/>
 </g>
 <g class="bar"><title>4 E3s</title>
<path  d="
M25845 -23195
L26905 -23195
L26905 -23055
L25845 -23055
L25845 -23195
L26905 -23195
Z" fill="currentColor"/>
 </g>
 <g class="bar"><title>9 F3s</title>
<path  d="
M25845 -23020
L28225 -23020
L28225 -22880
L25845 -22880
L25845 -23020
L28225 -23020
Z" fill="currentColor"/>
 </g>
 <g class="bar"><title>6 G3s</title>
<path  d="
M25845 -22845
L27433 -22845
L27433 -22705
L25845 -22705
L25845 -22845
L27433 -22845
Z" fill="currentColor"/>
 </g>
 <g class="bar"><title>3 A3s</title>
<path  d="
M25845 -22670
L26641 -22670
L26641 -22530
L25845 -22530
L25845 -22670
L26641 -22670
Z" fill="currentColor"/>
 </g>
 <g class="bar"><title>3 B3s</title>
<path  d="
M25845 -22495
L26641 -22495
L26641 -22355
L25845 -22355
L25845 -22495
L26641 -22495
Z" fill="currentColor"/>
 </g>
</g>
</svg>
